<svg fill="none" height="16" viewBox="0 0 16 16" width="16" xmlns="http://www.w3.org/2000/svg"><g fill="#1c01ff"><path d="m0 5.22286 2.10041-1.10857h1.21412v7.77141h-1.43266v-6.26284l-1.238391.64z"/><path d="m9.94301 11.8857h-5.00214v-1.0857c0-.5486.07689-1.00571.23068-1.37143.15378-.37333.36018-.67809.61919-.91428.25901-.24381.54231-.4381.84988-.58286l.8256-.38857c.31567-.15238.57063-.31238.76489-.48.20235-.17524.30353-.4.30353-.67429v-.20571c0-.28191-.10523-.50286-.31567-.66286-.20235-.16762-.53016-.25143-.98343-.25143-.2752 0-.55445.0381-.83774.11429-.2752.07619-.6111.18285-1.00771.32l-.44922-1.17715c.45326-.19047.86606-.3238 1.23839-.4.38042-.08381.7487-.12571 1.10484-.12571.65562 0 1.17769.09905 1.56621.29714.39661.1981.6799.46477.84987.8.17807.32762.26711.68953.26711 1.08572v.20571c0 .41143-.08904.76191-.26711 1.05143-.16997.28952-.39661.53333-.6799.73143-.28329.19809-.59087.37333-.92272.52571l-.8256.38857c-.29948.13715-.52207.32762-.66776.57143-.1376.24381-.21449.55616-.23068.93716h3.56949z"/><path d="m16 9.77143c0 .40377-.089.77717-.2671 1.11997-.1781.3353-.4654.6057-.862.8115-.3885.1981-.9106.2971-1.5662.2971-.3724 0-.7609-.0419-1.1656-.1257-.3966-.0838-.8337-.2248-1.3112-.4229l.4492-1.1771c.429.1447.7892.259 1.0806.3428.2994.0762.5989.1143.8984.1143.429 0 .7528-.08.9713-.24.2266-.1676.3399-.4266.3399-.77711v-.16c0-.28953-.0971-.52191-.2913-.69715-.1862-.18285-.4776-.27428-.8742-.27428h-1.287v-1.23429h1.287c.3804 0 .6597-.08381.8377-.25143.1781-.17524.2671-.4.2671-.67428v-.16c0-.35048-.1052-.60191-.3156-.75429-.2024-.16-.5019-.24-.8985-.24-.2833 0-.5706.0381-.862.11429-.2833.06857-.6273.17524-1.032.32l-.4492-1.17715c.4533-.19809.8742-.33523 1.2627-.41142s.7649-.11429 1.1291-.11429c.6232 0 1.1251.09905 1.5055.29714.3804.1981.6556.46477.8256.8.1781.33524.2671.70477.2671 1.10857v.16c0 .3581-.0971.67429-.2914.94858-.1862.26666-.433.48-.7406.64.3319.16761.5949.39238.7892.67428.2023.27429.3035.60191.3035.98286z"/></g></svg>